<svg width="80" height="80" viewBox="0 0 80 80" fill="none" xmlns="http://www.w3.org/2000/svg">
<g clip-path="url(#clip0_1_45)">
<path d="M40 80C17.9093 80 0 62.0907 0 40C0 17.9093 17.9093 0 40 0C62.0907 0 80 17.9093 80 40C80 62.0907 62.0907 80 40 80ZM40 74.6667C59.1467 74.6667 74.6667 59.1467 74.6667 40C74.6667 20.8533 59.1467 5.33333 40 5.33333C20.8533 5.33333 5.33333 20.8533 5.33333 40C5.33333 59.1467 20.8533 74.6667 40 74.6667ZM25.8853 38.1147L34.6667 46.896L54.1147 27.448C54.6176 26.9622 55.2912 26.6935 55.9904 26.6995C56.6896 26.7056 57.3584 26.9861 57.8529 27.4805C58.3473 27.9749 58.6277 28.6437 58.6338 29.3429C58.6399 30.0421 58.3711 30.7157 57.8853 31.2187L36.7387 52.3653C36.1886 52.9149 35.4429 53.2236 34.6653 53.2236C33.8878 53.2236 33.142 52.9149 32.592 52.3653L22.112 41.8853C21.612 41.385 21.3312 40.7064 21.3315 39.9991C21.3317 39.2917 21.613 38.6134 22.1133 38.1133C22.6137 37.6133 23.2922 37.3325 23.9996 37.3328C24.707 37.333 25.3853 37.6143 25.8853 38.1147Z" fill="#3C8491"/>
</g>
<defs>
<clipPath id="clip0_1_45">
<rect width="80" height="80" fill="white"/>
</clipPath>
</defs>
</svg>
